<svg width="512" height="512" viewBox="0 0 512 512" fill="none" xmlns="http://www.w3.org/2000/svg">
<rect x="30.5" y="102.5" width="387" height="243" rx="17.5" fill="#F06767" stroke="#1E3A8A" stroke-width="3"/>
<rect opacity="0.75" x="31" y="267" width="386" height="14" fill="white" stroke="#1E3A8A" stroke-width="2"/>
<rect x="94.5" y="166.5" width="387" height="243" rx="17.5" fill="#3EC598" stroke="#1E3A8A" stroke-width="3"/>
<rect opacity="0.75" x="95" y="331" width="386" height="14" fill="white" stroke="#1E3A8A" stroke-width="2"/>
<rect x="62.5" y="134.5" width="387" height="243" rx="17.5" fill="#3B82F6" stroke="#1E3A8A" stroke-width="3"/>
<rect opacity="0.75" x="63" y="299" width="386" height="14" fill="white" stroke="#1E3A8A" stroke-width="2"/>
<rect x="175" y="173" width="162" height="102" rx="17" fill="#D8C631" stroke="#1E3A8A" stroke-width="2"/>
<path d="M218.671 248C217.69 248 216.837 247.637 216.111 246.912C215.429 246.187 215.087 245.333 215.087 244.352V204.928C215.087 203.947 215.429 203.093 216.111 202.368C216.837 201.643 217.69 201.28 218.671 201.28H220.719C221.701 201.28 222.554 201.643 223.279 202.368C224.005 203.093 224.367 203.947 224.367 204.928V240C224.367 240.384 224.538 240.576 224.879 240.576H241.327C242.309 240.576 243.141 240.939 243.823 241.664C244.549 242.347 244.911 243.179 244.911 244.16V244.352C244.911 245.333 244.549 246.187 243.823 246.912C243.141 247.637 242.309 248 241.327 248H218.671ZM257.048 248C256.066 248 255.213 247.637 254.488 246.912C253.762 246.187 253.4 245.333 253.4 244.352V204.928C253.4 203.947 253.762 203.093 254.488 202.368C255.213 201.643 256.066 201.28 257.048 201.28H258.648C259.757 201.28 260.781 201.579 261.72 202.176C262.658 202.773 263.341 203.563 263.768 204.544L274.968 228.736C274.968 228.779 274.989 228.8 275.032 228.8C275.074 228.8 275.096 228.779 275.096 228.736L286.296 204.544C286.722 203.563 287.405 202.773 288.344 202.176C289.282 201.579 290.306 201.28 291.416 201.28H293.272C294.253 201.28 295.106 201.643 295.832 202.368C296.557 203.093 296.92 203.947 296.92 204.928V244.352C296.92 245.333 296.557 246.187 295.832 246.912C295.106 247.637 294.253 248 293.272 248H291.864C290.882 248 290.029 247.637 289.304 246.912C288.578 246.187 288.216 245.333 288.216 244.352V216.512C288.216 216.469 288.194 216.448 288.152 216.448C288.109 216.448 288.088 216.469 288.088 216.512L280.408 232.96C279.938 233.941 279.213 234.752 278.232 235.392C277.293 235.989 276.29 236.288 275.224 236.288H274.84C273.773 236.288 272.749 235.989 271.768 235.392C270.829 234.752 270.125 233.941 269.656 232.96L261.976 216.512C261.976 216.469 261.954 216.448 261.912 216.448C261.869 216.448 261.848 216.469 261.848 216.512V244.352C261.848 245.333 261.485 246.187 260.76 246.912C260.034 247.637 259.181 248 258.2 248H257.048Z" fill="#1E3A8A" fill-opacity="0.88"/>
</svg>
